<svg width="140" height="140" viewBox="0 0 140 140" fill="none" xmlns="http://www.w3.org/2000/svg">
  <rect width="140" height="140" rx="16" fill="#F8FAFC" />
  <rect x="14" y="14" width="36" height="36" fill="#0F172A" rx="4" />
  <rect x="18" y="18" width="28" height="28" fill="#F8FAFC" />
  <rect x="24" y="24" width="16" height="16" fill="#0F172A" rx="2" />
  <rect x="90" y="14" width="36" height="36" fill="#0F172A" rx="4" />
  <rect x="94" y="18" width="28" height="28" fill="#F8FAFC" />
  <rect x="100" y="24" width="16" height="16" fill="#0F172A" rx="2" />
  <rect x="14" y="90" width="36" height="36" fill="#0F172A" rx="4" />
  <rect x="18" y="94" width="28" height="28" fill="#F8FAFC" />
  <rect x="24" y="100" width="16" height="16" fill="#0F172A" rx="2" />
  <rect x="58" y="14" width="20" height="20" fill="#0F172A" rx="2" />
  <rect x="70" y="26" width="10" height="10" fill="#0EA5E9" rx="2" />
  <rect x="58" y="38" width="10" height="10" fill="#0EA5E9" rx="2" />
  <rect x="72" y="44" width="6" height="6" fill="#0F172A" />
  <rect x="84" y="54" width="12" height="12" fill="#0F172A" rx="2" />
  <rect x="96" y="54" width="12" height="12" fill="#0EA5E9" rx="2" />
  <rect x="114" y="54" width="12" height="12" fill="#0F172A" rx="2" />
  <rect x="54" y="64" width="12" height="12" fill="#0EA5E9" rx="2" />
  <rect x="66" y="64" width="12" height="12" fill="#0F172A" rx="2" />
  <rect x="78" y="64" width="12" height="12" fill="#0EA5E9" rx="2" />
  <rect x="90" y="68" width="8" height="8" fill="#0F172A" />
  <rect x="104" y="68" width="8" height="8" fill="#0EA5E9" />
  <rect x="118" y="68" width="8" height="8" fill="#0F172A" />
  <rect x="54" y="78" width="12" height="12" fill="#0F172A" rx="2" />
  <rect x="70" y="82" width="8" height="8" fill="#0EA5E9" />
  <rect x="84" y="82" width="8" height="8" fill="#0EA5E9" />
  <rect x="98" y="82" width="8" height="8" fill="#0F172A" />
  <rect x="110" y="82" width="8" height="8" fill="#0EA5E9" />
  <rect x="122" y="82" width="8" height="8" fill="#0F172A" />
  <rect x="54" y="94" width="12" height="12" fill="#0F172A" rx="2" />
  <rect x="70" y="94" width="12" height="12" fill="#0EA5E9" rx="2" />
  <rect x="86" y="94" width="12" height="12" fill="#0F172A" rx="2" />
  <rect x="102" y="94" width="12" height="12" fill="#0EA5E9" rx="2" />
  <rect x="118" y="94" width="12" height="12" fill="#0F172A" rx="2" />
</svg>
